#!OML:ASF F:\VICON\USERDATA\INSTALL\Justin_Nancy\Justin_Nancy.ASF
:FULLY-SPECIFIED
:DEGREES
233
root 0.972389 15.8105 -17.6688 28.1689 -0.592518 -0.281163
lowerback 32.7931 0.131087 2.11195
upperback 3.85044 1.37744 3.34988
thorax -12.6942 0.570524 1.91926
lowerneck -23.4953 -3.8331 -8.238
upperneck 3.38585 -3.31967 5.67837
head 4.92232 -1.35697 2.76835
rclavicle 2.78299e-014 7.79236e-014
rhumerus -18.3226 -0.731887 -77.6637
rradius 74.162
rwrist -9.42847
rhand -18.8055 15.7822
rfingers 7.12502
rthumb 7.49291 -14.0651
lclavicle 2.78299e-014 7.79236e-014
lhumerus -14.2445 0.633551 83.9964
lradius 62.4124
lwrist 10.7454
lhand -19.6477 30.9812
lfingers 7.12502
lthumb 6.67988 60.8559
rfemur -67.9793 -2.55816 19.4843
rtibia 64.5858
rfoot -18.9783 -5.25439
rtoes 4.94974
lfemur -69.1375 1.17258 -18.5645
ltibia 63.8249
lfoot -20.0747 3.0721
ltoes -2.57377
234
root 0.976307 15.7942 -17.661 29.0619 -0.631426 -0.165468
lowerback 33.2988 0.14894 2.01839
upperback 3.8261 1.37861 3.29071
thorax -12.9299 0.571354 1.90535
lowerneck -23.4007 -3.80285 -8.09083
upperneck 2.63314 -3.3112 5.68488
head 4.66634 -1.34792 2.74988
rclavicle 3.18055e-015 -2.78299e-014
rhumerus -18.9789 -1.13472 -77.4628
rradius 74.1133
rwrist -9.90739
rhand -18.7781 14.5294
rfingers 7.12502
rthumb 7.51929 -15.317
lclavicle 3.18055e-015 -2.78299e-014
lhumerus -15.0523 0.918933 83.8291
lradius 62.6164
lwrist 11.376
lhand -19.6895 31.3857
lfingers 7.12502
lthumb 6.6396 61.2616
rfemur -69.1057 -2.72254 19.4475
rtibia 64.7948
rfoot -19.0747 -5.16049
rtoes 4.59346
lfemur -70.1941 1.17753 -18.7264
ltibia 63.9913
lfoot -20.1145 2.97249
ltoes -2.11263
235
root 0.983641 15.7964 -17.6406 29.7078 -0.318186 0.0295673
lowerback 33.9852 -0.0330075 2.20219
upperback 3.86679 1.2387 3.27214
thorax -13.1516 0.497522 1.84364
lowerneck -23.4287 -3.82512 -8.13007
upperneck 2.04136 -3.32269 5.79429
head 4.48638 -1.34348 2.79126
rclavicle 0 3.97569e-015
rhumerus -19.6067 -1.52888 -77.1812
rradius 74.1139
rwrist -10.5104
rhand -18.232 11.7363
rfingers 7.12502
rthumb 8.04643 -18.0905
lclavicle 0 3.97569e-015
lhumerus -15.7265 1.05066 83.7618
lradius 61.2035
lwrist 11.4125
lhand -24.651 18.5961
lfingers 7.12502
lthumb 1.84865 48.5679
rfemur -69.7673 -3.18859 19.4635
rtibia 64.9697
rfoot -19.3758 -5.14706
rtoes 4.24344
lfemur -70.8678 0.866725 -18.8196
ltibia 64.0376
lfoot -20.2354 2.86411
ltoes -2.1914
236
root 0.980243 15.765 -17.6345 31.0195 -0.492331 -0.0167989
lowerback 33.9387 0.105216 1.97925
upperback 3.8979 1.32777 3.27586
thorax -13.1062 0.547135 1.93069
lowerneck -23.5946 -3.79106 -8.13736
upperneck 1.41848 -3.25214 5.87329
head 4.30976 -1.29809 2.82624
rclavicle 6.36111e-015 -1.51076e-014
rhumerus -20.4317 -1.77312 -76.9265
rradius 74.5141
rwrist -11.1915
rhand -17.976 10.2733
rfingers 7.12502
rthumb 8.29351 -19.5439
lclavicle 6.36111e-015 -1.51076e-014
lhumerus -16.3047 1.2208 83.6012
lradius 61.1222
lwrist 12.3524
lhand -24.3901 21.6673
lfingers 7.12502
lthumb 2.10063 51.6367
rfemur -71.4116 -3.06109 19.5384
rtibia 65.1817
rfoot -19.356 -5.0882
rtoes 4.20841
lfemur -72.4733 1.12076 -18.8845
ltibia 64.1632
lfoot -20.1579 2.75674
ltoes -2.2878
237
root 0.971104 15.7284 -17.6296 32.3263 -0.713828 0.237758
lowerback 33.9971 0.25877 1.48748
upperback 3.92586 1.33619 3.2255
thorax -13.1107 0.572931 2.13687
lowerneck -23.9079 -3.80398 -8.23159
upperneck 0.782111 -3.21276 6.03349
head 4.15495 -1.26116 2.89727
rclavicle 0 2.78299e-014
rhumerus -21.2885 -2.10618 -76.7368
rradius 74.8678
rwrist -11.6879
rhand -18.1378 11.2238
rfingers 7.12502
rthumb 8.1373 -18.5995
lclavicle 0 2.78299e-014
lhumerus -17.0962 1.52408 83.4735
lradius 61.2544
lwrist 12.857
lhand -24.2936 22.8284
lfingers 7.12502
lthumb 2.19379 52.7969
rfemur -73.1041 -2.95841 19.2575
rtibia 65.4007
rfoot -19.2318 -5.11607
rtoes 4.54166
lfemur -74.0222 1.28051 -19.2666
ltibia 64.2262
lfoot -20.098 2.65192
ltoes -2.10812
238
root 0.966925 15.7204 -17.6117 33.3178 -0.677722 0.320726
lowerback 34.4251 0.289774 1.41019
upperback 3.9609 1.35675 3.21474
thorax -13.244 0.583435 2.15789
lowerneck -24.233 -3.85947 -8.29812
upperneck 0.147202 -3.23129 6.14068
head 4.0042 -1.25617 2.94085
rclavicle 1.51076e-014 1.27222e-014
rhumerus -22.2299 -2.58818 -76.5188
rradius 75.044
rwrist -11.9532
rhand -18.3268 12.5279
rfingers 7.12502
rthumb 7.95498 -17.3024
lclavicle 1.51076e-014 1.27222e-014
lhumerus -18.1012 1.65219 83.3239
lradius 61.2835
lwrist 13.3711
lhand -24.9851 20.9904
lfingers 7.12502
lthumb 1.52595 50.9647
rfemur -74.1891 -3.01203 19.24
rtibia 65.4771
rfoot -19.2267 -5.11608
rtoes 4.69789
lfemur -75.0394 1.2503 -19.3593
ltibia 64.2255
lfoot -20.1882 2.6961
ltoes -2.30613
239
root 0.968096 15.7291 -17.5855 33.9749 -0.319919 0.26622
lowerback 35.2952 0.129553 1.81136
upperback 3.93384 1.3328 3.20582
thorax -13.6052 0.549265 1.94345
lowerneck -24.4906 -3.86244 -8.22103
upperneck -0.407152 -3.22252 6.17207
head 3.86378 -1.24327 2.94054
rclavicle -1.03368e-014 -2.94201e-014
rhumerus -23.4454 -3.04241 -76.2927
rradius 75.3331
rwrist -12.1847
rhand -18.8401 14.1311
rfingers 7.12502
rthumb 7.4595 -15.7173
lclavicle -1.03368e-014 -2.94201e-014
lhumerus -19.1402 1.62393 83.1375
lradius 61.118
lwrist 14.1823
lhand -25.8171 19.0346
lfingers 7.12502
lthumb 0.722361 49.0132
rfemur -74.6901 -3.27446 19.5267
rtibia 65.4204
rfoot -19.3645 -5.13379
rtoes 4.90644
lfemur -75.6281 1.03542 -19.1491
ltibia 64.1364
lfoot -20.3486 2.74707
ltoes -3.10636
240
root 0.973387 15.7391 -17.552 34.387 -0.420174 0.0817555
lowerback 36.5613 0.159286 1.91109
upperback 3.85541 1.44679 3.17749
thorax -14.0672 0.586169 1.83131
lowerneck -24.6348 -3.87558 -8.1902
upperneck -1.07863 -3.22276 6.23472
head 3.67312 -1.235 2.95772
rclavicle 6.36111e-015 2.42517e-014
rhumerus -24.8535 -3.33049 -76.0439
rradius 75.9462
rwrist -12.4791
rhand -19.5803 15.8085
rfingers 7.12502
rthumb 6.74494 -14.0641
lclavicle 6.36111e-015 2.42517e-014
lhumerus -20.3753 1.83213 82.9734
lradius 60.8947
lwrist 14.5135
lhand -25.9877 17.294
lfingers 7.12502
lthumb 0.557643 47.273
rfemur -74.9163 -3.16486 19.7007
rtibia 65.2395
rfoot -19.3258 -5.06405
rtoes 4.59397
lfemur -75.873 1.14932 -19.0004
ltibia 64.0308
lfoot -20.5425 2.88925
ltoes -3.46471
241
root 0.979852 15.7474 -17.5111 34.7963 -0.634683 -0.125283
lowerback 37.6806 0.238727 1.90492
upperback 3.95241 1.5702 3.15291
thorax -14.3788 0.631472 1.75271
lowerneck -25.0323 -3.90958 -8.15298
upperneck -1.80625 -3.23186 6.33088
head 3.50041 -1.22537 2.98333
rclavicle -4.77083e-015 -1.90833e-014
rhumerus -26.1446 -3.60139 -75.8531
rradius 76.6091
rwrist -12.6282
rhand -20.2035 16.3385
rfingers 7.12502
rthumb 6.14339 -13.5524
lclavicle -4.77083e-015 -1.90833e-014
lhumerus -21.6728 2.04693 82.8065
lradius 60.8249
lwrist 14.8523
lhand -26.4317 15.6906
lfingers 7.12502
lthumb 0.128785 45.6703
rfemur -75.1003 -2.96723 19.8289
rtibia 65.0297
rfoot -19.3538 -5.08705
rtoes 4.04827
lfemur -76.0372 1.3255 -18.8515
ltibia 63.9447
lfoot -20.9449 3.00719
ltoes -3.70503
242
root 0.979698 15.7519 -17.4756 35.2608 -0.622018 -0.37839
lowerback 38.9325 0.208972 2.10235
upperback 3.95921 1.64548 3.09784
thorax -14.8234 0.642817 1.55351
lowerneck -25.4161 -3.90709 -8.09038
upperneck -2.57962 -3.20529 6.55276
head 3.31245 -1.19072 3.04972
rclavicle -2.38542e-015 -2.78299e-014
rhumerus -27.4684 -3.90896 -75.7798
rradius 77.0925
rwrist -12.6888
rhand -20.6097 16.4219
rfingers 7.12502
rthumb 5.75121 -13.48
lclavicle -2.38542e-015 -2.78299e-014
lhumerus -23.1664 1.92058 82.6153
lradius 61.1932
lwrist 15.9253
lhand -27.3308 16.5988
lfingers 7.12502
lthumb -0.739571 46.5773
rfemur -75.3436 -2.83001 20.1063
rtibia 64.8254
rfoot -19.5037 -5.12863
rtoes 3.92713
lfemur -76.3086 1.41598 -18.5432
ltibia 63.8799
lfoot -21.3022 3.04261
ltoes -4.31078
